<svg width="198" height="87" viewBox="0 0 198 87" fill="none" xmlns="http://www.w3.org/2000/svg">
<g filter="url(#filter0_di_72_1014)">
<ellipse cx="164.526" cy="49.5382" rx="6.36353" ry="8.14979" transform="rotate(72.7832 164.526 49.5382)" fill="#7E5B50"/>
<path d="M166.396 55.5708C162.11 56.8987 157.817 55.258 156.787 51.9363C155.758 48.6145 158.372 44.8336 162.657 43.5057C166.942 42.1778 171.236 43.8184 172.265 47.1402C173.294 50.462 170.681 54.2429 166.396 55.5708Z" stroke="black" stroke-width="0.0959962"/>
</g>
<g filter="url(#filter1_f_72_1014)">
<path d="M167.566 44.4441C162.036 43.4534 159.716 46.8685 159.078 47.6965C162.272 45.4469 164.123 44.6733 167.566 44.4441Z" fill="#B77965"/>
</g>
<g filter="url(#filter2_f_72_1014)">
<path d="M172.403 49.4651C170.478 56.2703 162.359 57.1641 158.742 54.4523C165.402 55.0992 168.405 53.7758 172.403 49.4651Z" fill="#563024"/>
</g>
<g filter="url(#filter3_f_72_1014)">
<path d="M171.091 47.5717C165.614 52.104 160.569 51.9939 158.731 51.3722L171.091 47.5717Z" fill="#694438"/>
</g>
<path d="M11.16 43.36C9.84 43.36 8.592 43.24 7.416 43C6.24 42.736 5.22 42.424 4.356 42.064C3.492 41.704 2.856 41.368 2.448 41.056V34.612C3.6 35.26 5.052 35.872 6.804 36.448C8.556 37 10.5 37.276 12.636 37.276C13.5 37.276 14.136 37.168 14.544 36.952C14.976 36.712 15.192 36.304 15.192 35.728C15.192 35.104 14.712 34.588 13.752 34.18C12.816 33.748 11.328 33.22 9.288 32.596C7.704 32.092 6.348 31.54 5.22 30.94C4.116 30.316 3.264 29.548 2.664 28.636C2.088 27.7 1.8 26.512 1.8 25.072C1.8 23.584 2.184 22.24 2.952 21.04C3.72 19.84 4.92 18.892 6.552 18.196C8.184 17.5 10.272 17.152 12.816 17.152C13.584 17.152 14.4 17.188 15.264 17.26C16.152 17.308 16.86 17.38 17.388 17.476L21.456 20.464L20.052 24.856L11.52 22.516C10.536 22.516 9.804 22.72 9.324 23.128C8.868 23.536 8.64 24.028 8.64 24.604C8.64 25.3 9.036 25.852 9.828 26.26C10.62 26.668 11.76 27.076 13.248 27.484C15.6 28.132 17.424 28.852 18.72 29.644C20.016 30.436 20.928 31.336 21.456 32.344C21.984 33.328 22.248 34.444 22.248 35.692C22.248 37.996 21.324 39.856 19.476 41.272C17.628 42.664 14.856 43.36 11.16 43.36ZM34.1353 43.36C32.2873 43.36 30.6433 43.084 29.2033 42.532C27.7633 41.98 26.6353 41.056 25.8193 39.76C25.0033 38.464 24.5953 36.712 24.5953 34.504C24.5953 32.92 24.8593 31.564 25.3873 30.436C25.9393 29.308 26.6713 28.396 27.5833 27.7C28.4953 26.98 29.5153 26.464 30.6433 26.152C31.7713 25.816 32.9353 25.648 34.1353 25.648C36.1993 25.648 37.7833 25.852 38.8873 26.26C40.0153 26.668 40.7593 26.992 41.1193 27.232L42.9193 32.956L42.1993 35.188H31.0393C31.2073 36.076 31.6513 36.82 32.3713 37.42C33.0913 38.02 34.2793 38.32 35.9353 38.32C37.2313 38.32 38.3473 38.176 39.2833 37.888C40.2193 37.6 40.9513 37.348 41.4793 37.132V41.956C40.7593 42.34 39.7153 42.676 38.3473 42.964C37.0033 43.228 35.5993 43.36 34.1353 43.36ZM31.0753 32.884L36.0433 32.164L35.7193 30.616C35.5513 30.52 35.2993 30.448 34.9633 30.4C34.6513 30.352 34.3753 30.328 34.1353 30.328C33.4633 30.328 32.8993 30.472 32.4433 30.76C32.0113 31.048 31.6753 31.396 31.4353 31.804C31.2193 32.188 31.0993 32.548 31.0753 32.884ZM54.2095 43.36C52.3615 43.36 50.7175 43.084 49.2775 42.532C47.8375 41.98 46.7095 41.056 45.8935 39.76C45.0775 38.464 44.6695 36.712 44.6695 34.504C44.6695 32.92 44.9335 31.564 45.4615 30.436C46.0135 29.308 46.7455 28.396 47.6575 27.7C48.5695 26.98 49.5895 26.464 50.7175 26.152C51.8455 25.816 53.0095 25.648 54.2095 25.648C56.2735 25.648 57.8575 25.852 58.9615 26.26C60.0895 26.668 60.8335 26.992 61.1935 27.232L62.9935 32.956L62.2735 35.188H51.1135C51.2815 36.076 51.7255 36.82 52.4455 37.42C53.1655 38.02 54.3535 38.32 56.0095 38.32C57.3055 38.32 58.4215 38.176 59.3575 37.888C60.2935 37.6 61.0255 37.348 61.5535 37.132V41.956C60.8335 42.34 59.7895 42.676 58.4215 42.964C57.0775 43.228 55.6735 43.36 54.2095 43.36ZM51.1495 32.884L56.1175 32.164L55.7935 30.616C55.6255 30.52 55.3735 30.448 55.0375 30.4C54.7255 30.352 54.4495 30.328 54.2095 30.328C53.5375 30.328 52.9735 30.472 52.5175 30.76C52.0855 31.048 51.7495 31.396 51.5095 31.804C51.2935 32.188 51.1735 32.548 51.1495 32.884ZM71.5838 43.36C70.4558 43.36 69.3638 43.072 68.3078 42.496C67.2758 41.92 66.4238 41.008 65.7518 39.76C65.0798 38.512 64.7438 36.88 64.7438 34.864C64.7438 32.632 65.0678 30.844 65.7158 29.5C66.3878 28.156 67.2518 27.184 68.3078 26.584C69.3638 25.96 70.4558 25.648 71.5838 25.648C73.2878 25.648 74.4878 25.792 75.1838 26.08C75.9038 26.368 76.2638 26.512 76.2638 26.512L75.9038 19.708L76.2638 17.548H82.7798V37.24L83.4998 40.84L82.7798 43.036H76.6238V41.272L76.2638 41.092C76.2638 41.092 76.0838 41.284 75.7238 41.668C75.3638 42.028 74.8358 42.4 74.1398 42.784C73.4438 43.168 72.5918 43.36 71.5838 43.36ZM74.2838 38.284L76.2638 37.78V32.524C76.2638 31.972 76.0838 31.54 75.7238 31.228C75.3638 30.892 74.8838 30.724 74.2838 30.724C73.3958 30.724 72.7238 31.024 72.2678 31.624C71.8118 32.2 71.5838 33.16 71.5838 34.504C71.5838 35.824 71.8478 36.784 72.3758 37.384C72.9038 37.984 73.5398 38.284 74.2838 38.284ZM87.5655 43V31.336L85.6575 27.736L87.5655 26.008C87.4455 25.6 87.3495 25.06 87.2775 24.388C87.2295 23.692 87.2055 23.128 87.2055 22.696C87.2055 21.328 87.5175 20.128 88.1415 19.096C88.7895 18.064 89.6775 17.26 90.8055 16.684C91.9335 16.084 93.2055 15.784 94.6215 15.784C95.2935 15.784 96.0015 15.82 96.7455 15.892C97.5135 15.94 98.1735 16.036 98.7255 16.18L102.578 18.376L99.8055 23.38L95.6655 20.86C94.8495 20.86 94.2495 21.16 93.8655 21.76C93.4815 22.336 93.2895 22.984 93.2895 23.704C93.2895 24.232 93.3735 24.7 93.5415 25.108C93.7095 25.516 93.8775 25.816 94.0455 26.008H99.8055V30.328H94.0455V37.168L94.4055 40.804L94.0455 43H87.5655ZM107.985 43.36C106.545 43.36 105.429 43.084 104.637 42.532C103.869 41.98 103.329 41.188 103.017 40.156C102.729 39.1 102.585 37.84 102.585 36.376V25.972H109.065V35.44C109.065 36.328 109.233 37.024 109.569 37.528C109.929 38.032 110.457 38.284 111.153 38.284C111.801 38.284 112.389 38.008 112.917 37.456C113.469 36.904 113.745 36.1 113.745 35.044V25.972H120.225V37.204L120.981 40.804L120.225 43H114.141V41.236L113.781 41.056C113.469 41.368 113.013 41.704 112.413 42.064C111.837 42.424 111.165 42.736 110.397 43C109.653 43.24 108.849 43.36 107.985 43.36ZM124.433 43V32.164L123.713 28.204L124.829 26.008H130.193V27.556L130.517 27.772C130.781 27.532 131.141 27.256 131.597 26.944C132.077 26.608 132.653 26.308 133.325 26.044C133.997 25.78 134.753 25.648 135.593 25.648C137.753 25.648 139.373 26.26 140.453 27.484C141.533 28.708 142.073 30.424 142.073 32.632V37.204L142.829 40.804L142.073 43H135.593V33.568C135.593 32.656 135.389 31.96 134.981 31.48C134.597 30.976 133.985 30.724 133.145 30.724L130.913 31.408V43H124.433ZM151.881 43.36C150.753 43.36 149.661 43.072 148.605 42.496C147.573 41.92 146.721 41.008 146.049 39.76C145.377 38.512 145.041 36.88 145.041 34.864C145.041 32.632 145.365 30.844 146.013 29.5C146.685 28.156 147.549 27.184 148.605 26.584C149.661 25.96 150.753 25.648 151.881 25.648C153.585 25.648 154.785 25.792 155.481 26.08C156.201 26.368 156.561 26.512 156.561 26.512L156.201 19.708L156.561 17.548H163.077V37.24L163.797 40.84L163.077 43.036H156.921V41.272L156.561 41.092C156.561 41.092 156.381 41.284 156.021 41.668C155.661 42.028 155.133 42.4 154.437 42.784C153.741 43.168 152.889 43.36 151.881 43.36ZM154.581 38.284L156.561 37.78V32.524C156.561 31.972 156.381 31.54 156.021 31.228C155.661 30.892 155.181 30.724 154.581 30.724C153.693 30.724 153.021 31.024 152.565 31.624C152.109 32.2 151.881 33.16 151.881 34.504C151.881 35.824 152.145 36.784 152.673 37.384C153.201 37.984 153.837 38.284 154.581 38.284Z" fill="black"/>
<g filter="url(#filter4_i_72_1014)">
<path d="M170.571 34.2163C170.481 34.5822 170.179 36.4648 170.127 36.4689C170.075 36.473 169.813 37.6025 169.813 37.6025C169.813 37.6025 166 44 167 44C167.63 44 167.368 43.6838 168 44C169 44.5 169.015 44.1207 169.5 44C169.727 43.9436 170.27 45.1015 170.5 44.5C170.816 43.6742 170.252 41.0825 170.465 40.2251C170.693 39.3065 170.887 38.3965 170.887 38.3965C170.887 38.3965 171.207 36.5576 171.238 35.851C171.243 35.7193 171.639 30.2512 171.639 30.2512L171.608 28.618C171.608 28.618 171.583 26.7929 172.27 25.9522C172.561 25.5956 172.842 25.5004 173.175 25.178C174.429 23.9615 175.608 21.8581 175.608 21.8581C175.608 21.8581 177.16 19.5518 178.353 18.0189C179.267 16.8437 179.582 15.9914 180.547 14.8552C181.842 13.3295 182.271 12.2663 183.224 10.5257C184.185 8.77105 185.438 5.91444 185.438 5.91444C185.438 5.91444 184.64 6.53306 184.12 6.91904C183.047 7.71475 182.348 8.0461 181.316 8.88657C179.768 10.1458 179.19 11.1312 177.748 12.4957C176.698 13.4885 175.934 13.8883 174.995 14.9754C172.064 18.3671 171.599 25.7856 171.599 25.7856C171.599 25.7856 171.355 23.9728 171.086 22.8283C170.34 19.6509 169.72 18.0139 168.296 15.0301C167.207 12.7472 166.36 11.3433 164.828 9.28861C163.381 7.34757 160.405 4.86119 160.405 4.86119C160.405 4.86119 160.794 6.28558 161.073 7.1913C161.65 9.06403 161.533 10.4804 162.426 12.2478C163.566 14.5026 164.623 16.4559 165.771 18.7507C166.924 21.0567 168.103 21.1101 169.888 23.3661C171.768 25.741 170.869 31.5975 170.869 31.5975C170.869 31.5975 170.662 33.8504 170.571 34.2163Z" fill="#2B9630"/>
</g>
<path d="M170.571 34.2163C170.481 34.5822 170.179 36.4648 170.127 36.4689C170.075 36.473 169.813 37.6025 169.813 37.6025C169.813 37.6025 166 44 167 44C167.63 44 167.368 43.6838 168 44C169 44.5 169.015 44.1207 169.5 44C169.727 43.9436 170.27 45.1015 170.5 44.5C170.816 43.6742 170.252 41.0825 170.465 40.2251C170.693 39.3065 170.887 38.3965 170.887 38.3965C170.887 38.3965 171.207 36.5576 171.238 35.851C171.243 35.7193 171.639 30.2512 171.639 30.2512L171.608 28.618C171.608 28.618 171.583 26.7929 172.27 25.9522C172.561 25.5956 172.842 25.5004 173.175 25.178C174.429 23.9615 175.608 21.8581 175.608 21.8581C175.608 21.8581 177.16 19.5518 178.353 18.0189C179.267 16.8437 179.582 15.9914 180.547 14.8552C181.842 13.3295 182.271 12.2663 183.224 10.5257C184.185 8.77105 185.438 5.91444 185.438 5.91444C185.438 5.91444 184.64 6.53306 184.12 6.91904C183.047 7.71475 182.348 8.0461 181.316 8.88657C179.768 10.1458 179.19 11.1312 177.748 12.4957C176.698 13.4885 175.934 13.8883 174.995 14.9754C172.064 18.3671 171.599 25.7856 171.599 25.7856C171.599 25.7856 171.355 23.9728 171.086 22.8283C170.34 19.6509 169.72 18.0139 168.296 15.0301C167.207 12.7472 166.36 11.3433 164.828 9.28861C163.381 7.34757 160.405 4.86119 160.405 4.86119C160.405 4.86119 160.794 6.28558 161.073 7.1913C161.65 9.06403 161.533 10.4804 162.426 12.2478C163.566 14.5026 164.623 16.4559 165.771 18.7507C166.924 21.0567 168.103 21.1101 169.888 23.3661C171.768 25.741 170.869 31.5975 170.869 31.5975C170.869 31.5975 170.662 33.8504 170.571 34.2163Z" stroke="black" stroke-width="0.1"/>
<g filter="url(#filter5_f_72_1014)">
<path d="M173.374 19.4865C173.352 19.5315 173.348 19.5581 173.365 19.565L173.374 19.4865C173.797 18.6184 181.122 10.9149 184.662 6.88708C183.36 7.70233 182.41 8.17757 180.746 9.74404C179.083 11.3105 176.364 14.4828 175.291 15.2154L173.545 17.945L173.374 19.4865Z" fill="#60A038"/>
</g>
<g filter="url(#filter6_f_72_1014)">
<path d="M168.802 17.9142C168.863 18.0403 168.888 18.1106 168.871 18.1168L168.802 17.9142C168.237 16.7415 164.544 10.7438 161.771 6.53247C162.708 7.54219 161.48 6.64029 163.169 8.10769C165.215 9.88428 166.387 13.3103 167.172 14.199L168.562 17.2078L168.802 17.9142Z" fill="#60A038"/>
</g>
<path d="M173.89 20.8608L176.646 16.2177L178.779 14.0835L181.196 11.5206L182.787 9.41833" stroke="#A5BC65" stroke-width="0.294479"/>
<path d="M162.725 8.43384L164.015 11.002L165.076 12.7642L166.068 13.947L167.129 15.7092L167.963 16.6654L169.182 18.6541L169.498 19.1072" stroke="#A5BC65" stroke-width="0.294479"/>
<path d="M167.082 43.1207L166.997 31.853L166.214 28.2588L166.954 26.0932L171.85 26.0564L172.576 26.879C172.576 26.879 172.743 26.7817 173.078 26.5872C173.412 26.3687 173.878 26.1611 174.477 25.9646C175.1 25.768 175.819 25.6665 176.635 25.6604C177.115 25.6568 177.595 25.6892 178.076 25.7576C178.556 25.826 178.929 25.9192 179.194 26.0372L181.548 27.9995L179.243 32.625L174.476 30.6808L173.399 31.0489L173.49 43.0726L167.082 43.1207Z" fill="black"/>
<defs>
<filter id="filter0_di_72_1014" x="155.622" y="42.9968" width="17.8084" height="14.869" filterUnits="userSpaceOnUse" color-interpolation-filters="sRGB">
<feFlood flood-opacity="0" result="BackgroundImageFix"/>
<feColorMatrix in="SourceAlpha" type="matrix" values="0 0 0 0 0 0 0 0 0 0 0 0 0 0 0 0 0 0 127 0" result="hardAlpha"/>
<feOffset dy="0.893127"/>
<feGaussianBlur stdDeviation="0.446564"/>
<feComposite in2="hardAlpha" operator="out"/>
<feColorMatrix type="matrix" values="0 0 0 0 0 0 0 0 0 0 0 0 0 0 0 0 0 0 0.25 0"/>
<feBlend mode="normal" in2="BackgroundImageFix" result="effect1_dropShadow_72_1014"/>
<feBlend mode="normal" in="SourceGraphic" in2="effect1_dropShadow_72_1014" result="shape"/>
<feColorMatrix in="SourceAlpha" type="matrix" values="0 0 0 0 0 0 0 0 0 0 0 0 0 0 0 0 0 0 127 0" result="hardAlpha"/>
<feOffset dy="0.893127"/>
<feGaussianBlur stdDeviation="2.23282"/>
<feComposite in2="hardAlpha" operator="arithmetic" k2="-1" k3="1"/>
<feColorMatrix type="matrix" values="0 0 0 0 0.666667 0 0 0 0 0.331461 0 0 0 0 0.226111 0 0 0 1 0"/>
<feBlend mode="normal" in2="shape" result="effect2_innerShadow_72_1014"/>
</filter>
<filter id="filter1_f_72_1014" x="158.408" y="43.5955" width="9.82736" height="4.77084" filterUnits="userSpaceOnUse" color-interpolation-filters="sRGB">
<feFlood flood-opacity="0" result="BackgroundImageFix"/>
<feBlend mode="normal" in="SourceGraphic" in2="BackgroundImageFix" result="shape"/>
<feGaussianBlur stdDeviation="0.334923" result="effect1_foregroundBlur_72_1014"/>
</filter>
<filter id="filter2_f_72_1014" x="157.402" y="48.1254" width="16.3409" height="9.09149" filterUnits="userSpaceOnUse" color-interpolation-filters="sRGB">
<feFlood flood-opacity="0" result="BackgroundImageFix"/>
<feBlend mode="normal" in="SourceGraphic" in2="BackgroundImageFix" result="shape"/>
<feGaussianBlur stdDeviation="0.669845" result="effect1_foregroundBlur_72_1014"/>
</filter>
<filter id="filter3_f_72_1014" x="158.061" y="46.9019" width="13.7006" height="5.45151" filterUnits="userSpaceOnUse" color-interpolation-filters="sRGB">
<feFlood flood-opacity="0" result="BackgroundImageFix"/>
<feBlend mode="normal" in="SourceGraphic" in2="BackgroundImageFix" result="shape"/>
<feGaussianBlur stdDeviation="0.334923" result="effect1_foregroundBlur_72_1014"/>
</filter>
<filter id="filter4_i_72_1014" x="160.315" y="4.13174" width="25.1691" height="40.5919" filterUnits="userSpaceOnUse" color-interpolation-filters="sRGB">
<feFlood flood-opacity="0" result="BackgroundImageFix"/>
<feBlend mode="normal" in="SourceGraphic" in2="BackgroundImageFix" result="shape"/>
<feColorMatrix in="SourceAlpha" type="matrix" values="0 0 0 0 0 0 0 0 0 0 0 0 0 0 0 0 0 0 127 0" result="hardAlpha"/>
<feOffset dy="-0.588959"/>
<feGaussianBlur stdDeviation="0.883438"/>
<feComposite in2="hardAlpha" operator="arithmetic" k2="-1" k3="1"/>
<feColorMatrix type="matrix" values="0 0 0 0 0.0963334 0 0 0 0 0.425 0 0 0 0 0.111692 0 0 0 1 0"/>
<feBlend mode="normal" in2="shape" result="effect1_innerShadow_72_1014"/>
</filter>
<filter id="filter5_f_72_1014" x="172.471" y="6.00352" width="13.0746" height="14.4449" filterUnits="userSpaceOnUse" color-interpolation-filters="sRGB">
<feFlood flood-opacity="0" result="BackgroundImageFix"/>
<feBlend mode="normal" in="SourceGraphic" in2="BackgroundImageFix" result="shape"/>
<feGaussianBlur stdDeviation="0.441719" result="effect1_foregroundBlur_72_1014"/>
</filter>
<filter id="filter6_f_72_1014" x="160.888" y="5.64903" width="8.87155" height="13.3513" filterUnits="userSpaceOnUse" color-interpolation-filters="sRGB">
<feFlood flood-opacity="0" result="BackgroundImageFix"/>
<feBlend mode="normal" in="SourceGraphic" in2="BackgroundImageFix" result="shape"/>
<feGaussianBlur stdDeviation="0.441719" result="effect1_foregroundBlur_72_1014"/>
</filter>
</defs>
</svg>
